<svg width="44" height="64" viewBox="0 0 44 64" fill="none" xmlns="http://www.w3.org/2000/svg">
<path d="M21.9 41C21.6 41 21.3 40.9 21.1 40.6C15.7 34.5 14.4 33.1 14.1 32.7C13.4 31.8 13 30.6 13 29.4C13 26.4 15.4 24 18.5 24C19.8 24 21 24.5 22 25.3C23 24.5 24.3 24 25.5 24C28.5 24 31 26.4 31 29.4C31 30.7 30.5 31.9 29.7 32.8L22.7 40.7C22.5 40.9 22.3 41 21.9 41ZM15.9 31.5C16.2 31.9 19.4 35.5 22 38.4L28.2 31.4C28.7 30.9 28.9 30.2 28.9 29.4C28.9 27.6 27.4 26.1 25.6 26.1C24.6 26.1 23.6 26.6 22.9 27.4C22.6 27.7 22.3 27.8 22 27.8C21.7 27.8 21.4 27.6 21.2 27.4C20.5 26.6 19.5 26.1 18.5 26.1C16.7 26.1 15.2 27.6 15.2 29.4C15.1 30.3 15.5 31 15.9 31.5C15.8 31.5 15.8 31.5 15.9 31.5Z" fill="black"/>
</svg>
